<svg version="1.2" xmlns="http://www.w3.org/2000/svg" viewBox="0 0 186 133" width="186" height="133">
	<title>MercadoLibre (1)-svg</title>
	<defs>
		<clipPath clipPathUnits="userSpaceOnUse" id="cp1">
			<path d="m476.8 24c6.8-0.1 11.9 2 15.2 6.2 6.7 8.8 6.7 20.9 0 29.6-3.3 4.2-8.4 6.2-15.2 6.2-6.8 0-11.9-2.1-15.2-6.2-6.7-8.8-6.7-20.9 0-29.6 3.3-4.1 8.4-6.1 15.2-6.2zm-6 31.1c3.9 3.3 9.7 2.9 13-1 1.6-2.1 2.4-5.2 2.4-9.1 0-3.9-0.8-7-2.4-9.1-0.3-0.3-0.6-0.7-1-1-3.9-3.3-9.7-2.9-13 1-1.7 2.1-2.5 5.2-2.5 9.1 0 3.9 0.9 7 2.5 9.1 0.3 0.4 0.6 0.7 1 1z"/>
		</clipPath>
		<clipPath clipPathUnits="userSpaceOnUse" id="cp2">
			<path d="m396.8 24c3.9-0.1 7.9 0.8 11.4 2.6 3.3 1.8 5 5 5 9.8v15c-0.2 2.7 0 15.6-22.2 14.6-3.6-0.2-6.4-1.1-8.8-3.1-2.4-2-3.5-4.9-3.5-8.7 0-4.9 1.9-8.4 5.6-10.6 2.8-1.5 5.9-2.3 9-2.6l3.5-0.4c1.4-0.1 2.8-0.4 4.1-0.9 1.3-0.4 2.2-1.6 2.2-3 0.1-1.4-0.5-2.7-1.7-3.4-1.6-0.7-3.3-1-5-0.9-2.5 0-4.2 0.6-5.2 1.8-0.8 1-1.3 2.3-1.5 3.6h-9.8c0.1-3.1 1.1-6.1 2.9-8.6 2.7-3.5 7.4-5.2 14-5.2zm-2.9 34.5c2.2 0 4.3-0.7 6.1-2 1.9-1.3 2.8-3.7 2.9-7.2v-3.9c-0.6 0.4-1.3 0.7-2 1-0.9 0.3-1.8 0.5-2.7 0.7l-2.3 0.4c-1.6 0.2-3.2 0.7-4.7 1.4-1.6 0.9-2.5 2.6-2.4 4.4-0.1 1.4 0.4 2.8 1.5 3.8 1.1 0.9 2.3 1.3 3.6 1.4z"/>
		</clipPath>
		<clipPath clipPathUnits="userSpaceOnUse" id="cp3">
			<path d="m343.3 29.6q-5.1 5.7-5.1 15.9c0 6 1.5 10.9 4.6 14.7q4.65 5.7 14.4 5.7c6.5 0 11.5-2.3 14.8-6.8 2-2.6 3.2-5.7 3.5-9h-10.8c-0.1 1.8-0.8 3.6-1.9 5.1-1 1.3-2.8 2-5.3 2-3.2 0.2-6.2-1.9-7.2-4.9-0.8-2.2-1.1-4.6-1-7-0.1-2.5 0.3-5 1-7.3 1.3-3.5 3.8-5.2 7.4-5.2 2.1-0.2 4.2 0.7 5.6 2.4 0.8 1.2 1.3 2.6 1.5 4h10.9c-0.6-5.7-2.5-9.6-5.8-11.8-3.3-2.2-7.4-3.3-12.5-3.3-6-0.1-10.7 1.7-14.1 5.5z"/>
		</clipPath>
		<clipPath clipPathUnits="userSpaceOnUse" id="cp4">
			<path d="m314.2 44v20.4h10.2v-19.1q0-4.65 1.2-6.9c1.4-2.7 4.1-4 8.2-4q0.45 0 1.2 0c0.5 0 1.1 0.1 1.7 0.1v-10.5h-0.9-0.5c-22.4 0-21 20.1-21.1 20z"/>
		</clipPath>
		<clipPath clipPathUnits="userSpaceOnUse" id="cp5">
			<path d="m290.3 23.9c3.2 0 6.3 0.6 9.2 1.9 2.8 1.3 5.1 3.3 6.8 5.9 1.6 2.5 2.7 5.3 3.1 8.2 0.3 2.7 0.4 5.3 0.3 7.9h-28.6c0.2 4 1.6 6.7 4.2 8.3 1.7 1 3.6 1.4 5.5 1.3 2.3 0 4.3-0.4 5.8-1.6 0.5-0.5 1-1 1.4-1.6h11q-1.05 3.45-3.6 6c-3.5 3.9-8.5 5.8-14.8 5.8-5 0-9.9-1.7-13.8-4.9-4-3.2-6-8.5-6-15.8 0-6.9 1.8-12.1 5.4-15.8 3.6-3.7 8.3-5.5 14.1-5.6zm-9 17h17.7c0-2.4-1-4.7-2.7-6.3-1.7-1.4-3.9-2.2-6.1-2.1-2.2-0.1-4.5 0.7-6.1 2.3-1.5 1.7-2.5 3.8-2.8 6.1z"/>
		</clipPath>
		<clipPath clipPathUnits="userSpaceOnUse" id="cp6">
			<path d="m238.7 29.4c-2.8-3.5-7-5.5-11.5-5.4-9.9 0-16.3 7.4-16.3 17.1v23.4h9.3v-23.6c0-4.3 2.9-7.3 7-7.3 6.1 0 6.7 5.1 6.7 7.3v23.6h9.3v-23.6c0-4.3 3-7.3 7-7.3 6.1 0 6.8 5.1 6.8 7.3v23.6h9.3v-23.5c0-10-6-17.1-16.1-17.1-4.5 0-8.8 2-11.5 5.5z"/>
		</clipPath>
		<clipPath clipPathUnits="userSpaceOnUse" id="cp7">
			<path d="m453.9 11.9c0.7 0 1.2 0.1 1.2 0.1v37.6c0 0 0.2 16.3-18.4 16.3-5.3 0-11.3-1.6-14.4-5.3-3.1-3.7-4.6-8.5-4.6-14.3 0-6.7 1.5-12.2 4.5-16.1 2.9-3.8 7.4-5.9 12.1-5.8 2.2 0 4.3 0.5 6.2 1.6 1.8 1 3.3 2.5 4.4 4.3v-11.1c0-6.5 6.3-7.2 9-7.3zm-17.3 45.6c2.6 0.2 5.1-1.1 6.5-3.2 1.5-2.5 2.3-5.4 2.2-8.4 0-4.8-1.2-8.5-3.6-10.6-1.4-1.3-3.2-1.9-5.1-1.9-2.7-0.2-5.2 1.1-6.5 3.4-1.5 2.5-2.2 5.4-2.1 8.4-0.2 3.1 0.6 6.3 2.1 9 1.3 2.2 3.8 3.4 6.5 3.3z"/>
		</clipPath>
		<clipPath clipPathUnits="userSpaceOnUse" id="cp8">
			<path d="m329.1 85.5c3.1 0 6.3 0.6 9.2 1.8 2.8 1.2 5.1 3.1 6.8 5.6 1.6 2.4 2.7 5.1 3.1 7.9 0.4 2.5 0.5 5.1 0.4 7.6h-28.6c0.2 3.8 1.5 6.5 4.1 8 1.7 1 3.6 1.4 5.5 1.3 2.1 0.1 4.2-0.4 5.9-1.6 0.5-0.5 1-1 1.4-1.6h11c-0.7 2.2-1.9 4.2-3.6 5.8-3.6 3.7-8.5 5.6-14.8 5.6-5 0.1-9.9-1.6-13.8-4.7q-6-4.8-6-15.3c0-6.6 1.8-11.7 5.4-15.2 3.6-3.5 8.3-5.3 14-5.2zm-8.8 16.2h17.7c0-2.3-1-4.5-2.7-6-1.7-1.4-3.9-2.2-6.1-2.1-2.2-0.1-4.4 0.7-6.1 2.2-1.6 1.6-2.5 3.7-2.8 5.9z"/>
		</clipPath>
		<clipPath clipPathUnits="userSpaceOnUse" id="cp9">
			<path d="m254.5 72c0.3 0 0.7 0 1 0v18.6c1.1-1.8 2.6-3.3 4.4-4.4 1.9-1.1 4-1.6 6.2-1.6 4.7-0.1 9.2 2 12.1 5.8 3 3.8 4.5 9.1 4.5 15.8 0 5.8-1.5 10.6-4.6 14.3-3 3.7-9.1 5.3-14.4 5.3-18.6 0-18.4-16.3-18.4-16.3v-30.1c0-6.8 6.6-7.4 9.2-7.4zm9.5 45.4c2.6 0.2 5-1 6.4-3.2 1.5-2.6 2.2-5.7 2.1-8.7 0.1-3-0.6-5.9-2.1-8.5-1.4-2.3-3.9-3.6-6.5-3.4-1.9 0-3.7 0.7-5.1 1.9-2.4 2.1-3.6 5.5-3.6 10.3-0.2 3 0.6 5.9 2.2 8.4 1.5 2.1 4 3.4 6.6 3.2z"/>
		</clipPath>
		<clipPath clipPathUnits="userSpaceOnUse" id="cp10">
			<path d="m285.8 104.1v20.2h10.2v-19c0-3.2 0.4-5.5 1.2-7 1.4-2.7 4.1-4 8.2-4q0.45 0 1.2 0c0.5 0 1.1 0.1 1.7 0.1v-10.4l-0.9-0.1h-0.5c-22.4 0-21.1 20.3-21.1 20.2z"/>
		</clipPath>
		<clipPath clipPathUnits="userSpaceOnUse" id="cp11">
			<path d="m210.9 79.3v45.1h9v-52.4h-0.2c-1.4-0.1-8.8 0.2-8.8 7.3z"/>
		</clipPath>
		<clipPath clipPathUnits="userSpaceOnUse" id="cp12">
			<path d="m92.5 6c-50.1 0.1-90.6 27-90.4 59.8v3.5c0.1 34.8 35.6 62.9 90.8 62.6 55.5-0.1 90.5-28.5 90.5-63.2-0.1-1.2 0-1.9 0-3.5-0.2-32.6-40.6-59.2-90.5-59.2z"/>
		</clipPath>
		<clipPath clipPathUnits="userSpaceOnUse" id="cp13">
			<path d="m92.5 9.2c-47.7 0.1-86.3 25.5-86.2 56.7 0.1 31.2 38.8 56.4 86.5 56.2 47.7-0.2 86.3-25.5 86.2-56.7-0.1-31.2-38.6-56.2-86.1-56.2z"/>
		</clipPath>
		<clipPath clipPathUnits="userSpaceOnUse" id="cp14">
			<path d="m51.5 72.1c3 0 5.6 2.3 5.9 5.3 2.1-3.1 5.9-4.5 9.5-3.4 2.5 0.8 4.2 3.1 4.3 5.7 0 0.3 0.1 0.4 0.4 0.1 0.8-0.8 3.4-2.9 7.7-1.1 5.5 2.3 3.3 9.2 3.1 9.6q-0.3 0.6-0.3 1.2c0.3 0.1 2.2-0.9 3.9-0.9 4.2 0 7.6 3.4 7.7 7.6 0.1 4.2-3.2 7.7-7.4 7.8-4.2 0.1-7.7-3.2-7.8-7.4-0.1-0.8-0.2-0.9-0.8-0.4-1.6 1.7-4.2 2.2-6.4 1.2-4.2-1.6-4.5-4.7-4.3-6.1 0.1-0.5 0-0.7-0.5-0.3-1.6 1.4-3.9 1.8-5.9 1-5.7-2.2-5.3-7.7-5-9.2 0.1-0.1 0.1-0.2 0-0.2-1.1 1.1-2.6 1.8-4.2 1.8-3.2-0.2-5.8-2.7-5.9-5.9-0.1-3.4 2.5-6.3 5.9-6.4zm-25.5-43.1c7.2 3.3 14.6 5.9 22.3 7.9 2.8 0.6 5.6 1 8.4 1.3 2.8-0.1 5.6-0.6 8.2-1.5 2.3-0.7 4.6-1.2 7-1.6q-1.35 1.35-2.7 2.7l-7.7 8.4c-0.2 0.3-1.7 1.8-0.9 3.7 0.4 0.8 1 1.5 1.8 2 2.2 1.5 7 2.6 11 1.7 3.1-0.7 6.3-3.3 9.9-6.2 3.4-2.7 7.3-5.3 10.2-6.1 1.3-0.3 2.5-0.4 3.8-0.3 2.2 0.3 4.2 1 7.9 3.7 6.3 4.8 34.3 29.2 34.6 29.5 1.3 1.2 2 2.9 1.9 4.6-0.1 1.7-1.1 3.2-2.5 4-2.3 1.6-5.3 1.7-7.6 0.2 0 0-9.7-8.8-13.2-11.8-0.5-0.4-1.2-1.1-1.6-0.6-0.3 0.5 0.8 1.5 0.8 1.5l11.2 11.2c0.9 0.9 1.5 2.1 1.7 3.4 0.1 1.6-0.5 3.6-2.9 5.2-4 2.7-7.1 0.8-7.8 0.3-3.4-3.4-7.1-7.1-9.7-9.2-0.5-0.4-1.2-1-1.6-0.6-0.3 0.4 0.8 1.5 0.8 1.5l8.2 9.2c0 0 2 2.3 0.2 4.6l0.1-0.1c-0.3 0.4-0.8 0.8-1.2 1.2-1.7 1.2-3.7 1.6-5.6 1.3-1.6-0.2-2-0.9-2-0.9 0 0-4.4-4.5-7.9-7.5-0.5-0.4-1.2-1-1.6-0.6-0.3 0.4 0.8 1.5 0.8 1.5l7 7.8c0.2 0.2 0 0.5-0.3 1-0.3 0.5-1.4 1.5-4 1.8-3.3 0.4-7-1.5-8.5-2.3 0.8-1.5 1.2-3.1 1.2-4.7 0-5.4-4.4-9.8-9.8-9.8q-0.45 0-0.9 0c0.4-3.4-0.3-8-4.9-9.9-1.3-0.6-2.7-0.9-4.1-0.9-1.2 0-2.4 0.2-3.5 0.7-0.9-2.2-2.7-3.9-5-4.5q-1.8-0.6-3.6-0.6c-2.1 0-4.2 0.7-5.9 2.1-1.5-2.2-4-3.5-6.7-3.5-2.3 0-4.6 1-6.1 2.8-1.3-1.2-9.1-6.8-33.9-12.3-1.1-0.2-3.6-0.9-5.2-1.4 2-11.3 9.3-21.6 19.9-29.9zm70.6-1.3c8.6 0 17.1 4 17.2 4 16.5 8.1 33.4 5 47.2-0.9 9.9 8 16.5 17.8 18.3 28.6-13.1 2.9-26 7.1-38.3 12.5-4.2-3.5-28.2-24.5-34.2-29-2-1.7-4.3-3.1-6.8-4-2.4-0.8-5.1-0.7-7.5 0.2-3.5 1.1-6.8 3.8-10.3 6.6-3.2 2.6-6.5 5.2-9 5.8-4.3 1-8.6 0-9.9-1.8-0.5-0.7 0.4-1.6 0.4-1.7l7.6-8.3c5.9-6.1 11.6-11.7 24.7-12.1z"/>
		</clipPath>
		<clipPath clipPathUnits="userSpaceOnUse" id="cp15">
			<path d="m96.7 24.8c9.2 0 18 4.1 18.4 4.3 6.8 3.3 14.2 5 21.7 5.1 7.7-0.1 15.3-1.9 22.3-5.1 1.1 0.7 2.1 1.6 3.1 2.4-8.9 4.1-17.3 6.2-25.4 6.2-8 0-15.9-1.9-23.1-5.5-0.9-0.3-9-3.9-17-3.9h-0.7c-12.9 0.3-18.5 6-24.4 11.9l-7.6 8.2-0.1 0.1c-0.4 0.5-0.5 0.8-0.3 1 1 1.1 3.5 1.9 6.2 1.9 1.1 0 2.2-0.2 3.3-0.4 2.4-0.5 5.7-3.1 8.8-5.6l0.2-0.1c3.3-2.7 6.8-5.5 10.3-6.6 1.4-0.4 2.8-0.7 4.3-0.7 1.2 0 2.3 0.1 3.4 0.5 2.6 1 4.9 2.3 7 4.1 5.4 4 25.4 21.3 34 28.8 12.1-5.4 24.8-9.5 37.8-12.4 0.2 1.2 0.4 2.6 0.5 3.8-12.3 2.8-24.4 6.7-36.2 11.5 0.9 1.5 1.3 3.3 1.2 5-0.2 2.5-1.6 4.8-3.8 6.2-1.7 1.1-3.6 1.6-5.5 1.7-0.6 0-1.3-0.1-1.9-0.2 0.1 2-0.5 5.1-4.2 7.5-1.7 1.2-3.7 1.9-5.8 1.9-0.7 0-1.3-0.1-1.9-0.2v0.1c-0.4 2-1.6 3.8-3.3 4.9-1.6 1.3-3.5 2-5.6 2.1-0.9 0.1-1.9-0.1-2.8-0.4-0.1 0.2-0.3 0.4-0.4 0.6-0.7 1-2.3 2.5-5.9 2.9-0.4 0.1-0.9 0.1-1.3 0.1-3.1-0.2-6.1-1.1-8.8-2.6-1.9 2-4.6 3.2-7.4 3.2-4.2 0-8-2.5-9.6-6.4-0.8 0.3-1.8 0.5-2.7 0.5-1.2 0-2.4-0.2-3.5-0.7-2.4-0.8-4.4-2.7-5.4-5.1-0.7 0.1-1.3 0.2-2 0.2-1 0-2.1-0.2-3.1-0.6-3.4-1.2-6-4.1-6.7-7.7-0.4 0.1-0.8 0.1-1.2 0.1-5 0.1-9.1-3.8-9.2-8.8 0-1.2 0.3-2.3 0.7-3.4-1.3-1-9-6.4-32.6-11.6-0.8-0.2-5.1-1.2-5.1-1.2 0.2-1.3 0.3-2.6 0.6-3.8 1.5 0.4 4.1 1.1 5.2 1.4 23.1 5.2 31.7 10.6 33.9 12.3 1.6-1.6 3.9-2.6 6.2-2.6 2.6 0 5.1 1.2 6.8 3.3 1.7-1.2 3.7-1.9 5.8-1.9 1.3 0 2.5 0.2 3.7 0.6 2.2 0.7 4.1 2.2 5.1 4.3 1-0.4 2.1-0.6 3.2-0.6 1.5 0.1 3 0.4 4.4 1 5.1 2.2 5.5 7.2 5.3 9.8h0.5c5.7 0.1 10.2 4.7 10.2 10.4 0 1.6-0.3 3.1-1 4.5 2.1 1.2 4.4 1.9 6.8 2 0.3 0 0.7-0.1 1-0.1 2.5-0.5 3.4-1.3 3.6-1.6 0.2-0.3 0.3-0.4 0.3-0.5l-7-7.7c-0.5-0.4-1.5-1.5-0.8-2.3 0.2-0.2 0.5-0.3 0.8-0.3 0.6 0.1 1.2 0.4 1.6 0.8 3.4 2.8 7.5 7 8 7.5l0.1 0.1c0.5 0.3 1 0.5 1.6 0.6 0.3 0.1 0.7 0.1 1.1 0.1 1.4 0 2.8-0.4 4-1.3l0.7-0.8 0.3-0.4c0.9-1.2 0.8-2.8-0.2-3.9l-8.2-9.2c-0.2-0.2-0.4-0.5-0.6-0.7-0.7-0.8-0.5-1.3-0.2-1.6 0.2-0.2 0.4-0.3 0.7-0.3 0.6 0 1.2 0.3 1.7 0.8 2.2 1.9 5.2 4.9 8.2 7.8l1.6 1.6c0.9 0.6 2.1 1 3.2 1 1.4 0 2.8-0.4 4-1.3 1.9-1.3 2.8-2.8 2.7-4.7-0.2-1.1-0.8-2.2-1.6-3l-11.2-11.2c-0.7-0.7-1.4-1.6-0.8-2.3 0.2-0.3 0.5-0.4 0.8-0.4 0.6 0.2 1.1 0.5 1.6 0.9 3.6 2.9 13.2 11.7 13.3 11.8 0.9 0.6 2.1 0.9 3.2 0.9 1.3-0.1 2.6-0.5 3.7-1.2 1.3-0.8 2.1-2.1 2.2-3.6 0-1.5-0.6-3-1.7-4.1-0.2-0.2-28.3-24.6-34.6-29.4-3.5-2.6-5.5-3.3-7.6-3.6-0.3-0.1-0.5-0.1-0.8-0.1-0.9 0-1.9 0.2-2.8 0.4-3.1 0.9-7.2 3.8-10 6.1-3.6 2.8-7 5.6-10.2 6.3q-1.65 0.3-3.3 0.3c-2.9 0-5.7-0.7-8.2-2.1-0.9-0.5-1.5-1.3-2-2.2-0.9-2 0.5-3.7 1.1-4.3l7.7-8.3q0.75-0.75 1.5-1.5c-1.8 0.3-3.6 0.8-5.3 1.3-2.7 0.9-5.5 1.4-8.4 1.6l-3.7-0.2c-4.2-0.2-17.8-3.7-28.9-8.2 1-0.8 2.1-1.6 3.2-2.4 10.6 4 24 7.2 26.6 7.3 0.6 0 2.4 0 2.9 0 2.5-0.1 5-0.6 7.4-1.4 3.4-1 6.9-1.7 10.5-1.9 4.1-3.3 10.2-7.2 21.1-7.5h0.8zm-45.1 59.2c1.4 0.1 2.8-0.5 3.8-1.5l0.4-0.4 0.4 0.3c0.2 0.1 0.2 0.4 0.2 0.7-0.3 1.6-0.7 6.6 4.6 8.7 0.6 0.3 1.3 0.4 1.9 0.4 1.3 0 2.5-0.5 3.5-1.3 0.1-0.2 0.4-0.3 0.6-0.3h0.2l0.3 0.2c0.2 0.2 0.2 0.5 0.1 0.8-0.2 1.1-0.2 3.8 3.9 5.5 0.7 0.3 1.5 0.5 2.3 0.5 1.4 0 2.6-0.6 3.5-1.6 0.2-0.3 0.5-0.5 0.8-0.5 0.8 0 0.8 0.9 0.8 1.2 0.2 3.8 3.4 6.8 7.2 6.8 3.9 0 7-3.1 7-7 0-3.9-3.1-7-7-7-0.9 0-1.9 0.2-2.8 0.6-0.3 0.1-0.7 0.2-1 0.3h-0.2l-0.2-0.1c-0.4-0.3-0.4-0.8 0.1-1.9 0-0.1 2.3-6.8-2.9-9-0.9-0.4-2-0.7-3-0.7-1.5 0.1-3 0.7-4 1.8-0.2 0.2-0.5 0.3-0.7 0.3-0.1 0-0.6 0-0.7-0.8-0.1-2.4-1.6-4.5-3.9-5.2q-1.2-0.3-2.4-0.3c-2.6 0.1-5 1.4-6.5 3.6l-0.8 1.2-0.2-1.5c-0.3-2.8-2.7-5-5.6-4.9-3 0-5.4 2.6-5.3 5.6 0.1 3 2.5 5.4 5.6 5.5z"/>
		</clipPath>
	</defs>
	<style>
		.s0 { fill: #2a3375 } 
		.s1 { fill: #fdd100 } 
		.s2 { fill: #ffffff } 
	</style>
	<g id="Layer">
		<g id="Clip-Path" clip-path="url(#cp1)">
			<g id="Layer">
			</g>
		</g>
	</g>
	<g id="Layer">
		<g id="Clip-Path" clip-path="url(#cp2)">
			<g id="Layer">
			</g>
		</g>
	</g>
	<g id="Layer">
		<g id="Clip-Path" clip-path="url(#cp3)">
			<g id="Layer">
			</g>
		</g>
	</g>
	<g id="Layer">
		<g id="Clip-Path" clip-path="url(#cp4)">
			<g id="Layer">
			</g>
		</g>
	</g>
	<g id="Layer">
		<g id="Clip-Path" clip-path="url(#cp5)">
			<g id="Layer">
			</g>
		</g>
	</g>
	<g id="Layer">
		<g id="Clip-Path" clip-path="url(#cp6)">
			<g id="Layer">
			</g>
		</g>
	</g>
	<g id="Layer">
		<g id="Clip-Path" clip-path="url(#cp7)">
			<g id="Layer">
			</g>
		</g>
	</g>
	<g id="Layer">
		<g id="Clip-Path" clip-path="url(#cp8)">
			<g id="Layer">
			</g>
		</g>
	</g>
	<g id="Layer">
		<g id="Clip-Path" clip-path="url(#cp9)">
			<g id="Layer">
			</g>
		</g>
	</g>
	<g id="Layer">
		<g id="Clip-Path" clip-path="url(#cp10)">
			<g id="Layer">
			</g>
		</g>
	</g>
	<g id="Layer">
		<g id="Clip-Path" clip-path="url(#cp11)">
			<g id="Layer">
			</g>
		</g>
	</g>
	<g id="Layer">
		<g id="Clip-Path" clip-path="url(#cp12)">
			<g id="Layer">
				<path id="Layer" class="s0" d="m-13-8.9h211.3v155.9h-211.3z"/>
			</g>
		</g>
	</g>
	<g id="Layer">
		<g id="Clip-Path" clip-path="url(#cp13)">
			<g id="Layer">
				<path id="Layer" class="s1" d="m-8.7-5.8h202.7v142.9h-202.7z"/>
			</g>
		</g>
	</g>
	<g id="Layer">
		<g id="Clip-Path" clip-path="url(#cp14)">
			<g id="Layer">
				<path id="Layer" class="s2" d="m-8.9 12.6h203.2v106.3h-203.2z"/>
			</g>
		</g>
	</g>
	<g id="Layer">
		<g id="Clip-Path" clip-path="url(#cp15)">
			<g id="Layer">
				<path id="Layer" class="s0" d="m-9.5 9.7h204.3v112.2h-204.3z"/>
			</g>
		</g>
	</g>
</svg>